<svg width="14" height="14" viewBox="0 0 14 14" fill="none" xmlns="http://www.w3.org/2000/svg">
<path d="M13.5946 0.710215C13.2046 0.320215 12.5746 0.320215 12.1846 0.710215L7.29459 5.59022L2.40459 0.700215C2.01459 0.310215 1.38459 0.310215 0.994587 0.700215C0.604587 1.09021 0.604587 1.72022 0.994587 2.11022L5.88459 7.00022L0.994587 11.8902C0.604587 12.2802 0.604587 12.9102 0.994587 13.3002C1.38459 13.6902 2.01459 13.6902 2.40459 13.3002L7.29459 8.41021L12.1846 13.3002C12.5746 13.6902 13.2046 13.6902 13.5946 13.3002C13.9846 12.9102 13.9846 12.2802 13.5946 11.8902L8.70459 7.00022L13.5946 2.11022C13.9746 1.73022 13.9746 1.09022 13.5946 0.710215Z" fill="#F5F5F5"/>
</svg>