<svg width="18" height="18" viewBox="0 0 18 18" fill="none" xmlns="http://www.w3.org/2000/svg">
<path d="M12.7515 10.9998H11.9615L11.6815 10.7298C12.8815 9.32977 13.5015 7.41977 13.1615 5.38977C12.6915 2.60977 10.3715 0.389771 7.57154 0.0497711C3.34154 -0.470229 -0.218459 3.08977 0.301541 7.31977C0.641541 10.1198 2.86154 12.4398 5.64154 12.9098C7.67154 13.2498 9.58154 12.6298 10.9815 11.4298L11.2515 11.7098V12.4998L15.5015 16.7498C15.9115 17.1598 16.5815 17.1598 16.9915 16.7498C17.4015 16.3398 17.4015 15.6698 16.9915 15.2598L12.7515 10.9998ZM6.75154 10.9998C4.26154 10.9998 2.25154 8.98977 2.25154 6.49977C2.25154 4.00977 4.26154 1.99977 6.75154 1.99977C9.24154 1.99977 11.2515 4.00977 11.2515 6.49977C11.2515 8.98977 9.24154 10.9998 6.75154 10.9998Z" fill="#F5F5F5"/>
</svg>
