<svg width="28" height="27" viewBox="0 0 28 27" fill="none" xmlns="http://www.w3.org/2000/svg">
<path d="M13.987 0.0377197C6.62699 0.0377197 0.666992 6.01105 0.666992 13.3711C0.666992 20.7311 6.62699 26.7044 13.987 26.7044C21.3603 26.7044 27.3337 20.7311 27.3337 13.3711C27.3337 6.01105 21.3603 0.0377197 13.987 0.0377197ZM23.227 8.03772H19.2937C18.867 6.37105 18.2537 4.77105 17.4537 3.29105C19.907 4.13105 21.947 5.83772 23.227 8.03772ZM14.0003 2.75772C15.107 4.35772 15.9737 6.13105 16.547 8.03772H11.4537C12.027 6.13105 12.8937 4.35772 14.0003 2.75772ZM3.68033 16.0377C3.46699 15.1844 3.33366 14.2911 3.33366 13.3711C3.33366 12.4511 3.46699 11.5577 3.68033 10.7044H8.18699C8.08033 11.5844 8.00033 12.4644 8.00033 13.3711C8.00033 14.2777 8.08033 15.1577 8.18699 16.0377H3.68033ZM4.77366 18.7044H8.70699C9.13366 20.3711 9.74699 21.9711 10.547 23.4511C8.09366 22.6111 6.05366 20.9177 4.77366 18.7044ZM8.70699 8.03772H4.77366C6.05366 5.82439 8.09366 4.13105 10.547 3.29105C9.74699 4.77105 9.13366 6.37105 8.70699 8.03772ZM14.0003 23.9844C12.8937 22.3844 12.027 20.6111 11.4537 18.7044H16.547C15.9737 20.6111 15.107 22.3844 14.0003 23.9844ZM17.1203 16.0377H10.8803C10.7603 15.1577 10.667 14.2777 10.667 13.3711C10.667 12.4644 10.7603 11.5711 10.8803 10.7044H17.1203C17.2403 11.5711 17.3337 12.4644 17.3337 13.3711C17.3337 14.2777 17.2403 15.1577 17.1203 16.0377ZM17.4537 23.4511C18.2537 21.9711 18.867 20.3711 19.2937 18.7044H23.227C21.947 20.9044 19.907 22.6111 17.4537 23.4511ZM19.8137 16.0377C19.9203 15.1577 20.0003 14.2777 20.0003 13.3711C20.0003 12.4644 19.9203 11.5844 19.8137 10.7044H24.3203C24.5337 11.5577 24.667 12.4511 24.667 13.3711C24.667 14.2911 24.5337 15.1844 24.3203 16.0377H19.8137Z" fill="#F5F5F5"/>
</svg>
